<mxfile host="app.diagrams.net" agent="Mozilla/5.0 (Windows NT 10.0; Win64; x64) AppleWebKit/537.36 (KHTML, like Gecko) Chrome/140.0.0.0 Safari/537.36" version="28.2.5">
  <diagram name="Страница — 1" id="Y6vIu1yTKkNTMVe-IIjl">
    <mxGraphModel dx="3495" dy="1373" grid="0" gridSize="10" guides="1" tooltips="1" connect="1" arrows="1" fold="1" page="0" pageScale="1" pageWidth="1169" pageHeight="827" background="light-dark(#FFFFFF,#F9F9F9)" math="0" shadow="0">
      <root>
        <mxCell id="0" />
        <mxCell id="1" parent="0" />
        <mxCell id="z0Kl6_l-Gnp_nz9WpaOO-122" value="" style="rounded=0;whiteSpace=wrap;html=1;fillColor=light-dark(#FFFFFF,#F8CECC);" vertex="1" parent="1">
          <mxGeometry x="-996" y="380" width="777" height="427" as="geometry" />
        </mxCell>
        <mxCell id="z0Kl6_l-Gnp_nz9WpaOO-121" value="" style="rounded=0;whiteSpace=wrap;html=1;fillColor=light-dark(#FFFFFF,#9AC7BF);" vertex="1" parent="1">
          <mxGeometry x="-932" y="-151" width="664" height="553" as="geometry" />
        </mxCell>
        <mxCell id="z0Kl6_l-Gnp_nz9WpaOO-120" value="" style="rounded=0;whiteSpace=wrap;html=1;fillColor=light-dark(#FFFFFF,#E6D0DE);" vertex="1" parent="1">
          <mxGeometry x="-1369" y="254" width="475" height="646" as="geometry" />
        </mxCell>
        <mxCell id="z0Kl6_l-Gnp_nz9WpaOO-119" value="" style="rounded=0;whiteSpace=wrap;html=1;fillColor=light-dark(#FFFFFF,#FFF4C3);" vertex="1" parent="1">
          <mxGeometry x="-603" y="648" width="440" height="232.5" as="geometry" />
        </mxCell>
        <mxCell id="z0Kl6_l-Gnp_nz9WpaOO-111" style="edgeStyle=orthogonalEdgeStyle;rounded=0;orthogonalLoop=1;jettySize=auto;html=1;exitX=0.5;exitY=0;exitDx=0;exitDy=0;entryX=1;entryY=0.5;entryDx=0;entryDy=0;strokeColor=light-dark(#000000,#121212);" edge="1" parent="1" source="z0Kl6_l-Gnp_nz9WpaOO-13" target="z0Kl6_l-Gnp_nz9WpaOO-71">
          <mxGeometry relative="1" as="geometry" />
        </mxCell>
        <mxCell id="z0Kl6_l-Gnp_nz9WpaOO-13" value="&lt;p class=&quot;MsoNormal&quot;&gt;&lt;b&gt;&lt;span style=&quot;line-height: 107%;&quot;&gt;&lt;font style=&quot;font-size: 20px;&quot;&gt;Simulator&lt;/font&gt;&lt;/span&gt;&lt;/b&gt;&lt;span style=&quot;font-size:16.0pt;line-height:107%&quot;&gt;&lt;/span&gt;&lt;/p&gt;" style="swimlane;fontStyle=0;childLayout=stackLayout;horizontal=1;startSize=30;horizontalStack=0;resizeParent=1;resizeParentMax=0;resizeLast=0;collapsible=1;marginBottom=0;whiteSpace=wrap;html=1;fillColor=light-dark(#EEEEEE,#F9F9F9);strokeColor=light-dark(#36393D,#000000);fontColor=light-dark(#000000,#000000);" vertex="1" parent="1">
          <mxGeometry x="-346" y="716.92" width="138" height="135" as="geometry" />
        </mxCell>
        <mxCell id="z0Kl6_l-Gnp_nz9WpaOO-16" value="&lt;div&gt;&lt;font style=&quot;font-size: 15px;&quot;&gt;id (PK)&lt;/font&gt;&lt;/div&gt;&lt;div&gt;&lt;font style=&quot;font-size: 15px;&quot;&gt;name&lt;/font&gt;&lt;/div&gt;&lt;div&gt;&lt;font style=&quot;font-size: 15px;&quot;&gt;cost&lt;/font&gt;&lt;/div&gt;&lt;div&gt;&lt;font style=&quot;font-size: 15px;&quot;&gt;page_id (FK → Page.id)&lt;/font&gt;&lt;/div&gt;&lt;div&gt;&lt;br&gt;&lt;/div&gt;" style="text;strokeColor=light-dark(#36393D,#000000);fillColor=light-dark(#EEEEEE,#F9F9F9);align=left;verticalAlign=middle;spacingLeft=4;spacingRight=4;overflow=hidden;points=[[0,0.5],[1,0.5]];portConstraint=eastwest;rotatable=0;whiteSpace=wrap;html=1;fontColor=light-dark(#000000,#000000);" vertex="1" parent="z0Kl6_l-Gnp_nz9WpaOO-13">
          <mxGeometry y="30" width="138" height="105" as="geometry" />
        </mxCell>
        <mxCell id="z0Kl6_l-Gnp_nz9WpaOO-110" style="edgeStyle=orthogonalEdgeStyle;rounded=0;orthogonalLoop=1;jettySize=auto;html=1;exitX=0.5;exitY=0;exitDx=0;exitDy=0;entryX=0;entryY=0.5;entryDx=0;entryDy=0;strokeColor=light-dark(#000000,#141414);" edge="1" parent="1" source="z0Kl6_l-Gnp_nz9WpaOO-65" target="z0Kl6_l-Gnp_nz9WpaOO-72">
          <mxGeometry relative="1" as="geometry" />
        </mxCell>
        <mxCell id="z0Kl6_l-Gnp_nz9WpaOO-65" value="&lt;font style=&quot;font-size: 20px;&quot;&gt;&lt;b&gt;Chapter&lt;/b&gt;&lt;/font&gt;" style="swimlane;fontStyle=0;childLayout=stackLayout;horizontal=1;startSize=30;horizontalStack=0;resizeParent=1;resizeParentMax=0;resizeLast=0;collapsible=1;marginBottom=0;whiteSpace=wrap;html=1;fillColor=light-dark(#EEEEEE,#F9F9F9);strokeColor=light-dark(#36393D,#000000);fontColor=light-dark(#000000,#000000);" vertex="1" parent="1">
          <mxGeometry x="-790" y="522.5" width="140" height="145" as="geometry" />
        </mxCell>
        <mxCell id="z0Kl6_l-Gnp_nz9WpaOO-66" value="&lt;div&gt;&lt;font style=&quot;color: light-dark(rgb(0, 0, 0), rgb(0, 0, 0));&quot;&gt;&lt;span style=&quot;font-size: 16px;&quot;&gt;id (PK)&lt;/span&gt;&lt;/font&gt;&lt;/div&gt;&lt;div&gt;&lt;font style=&quot;color: light-dark(rgb(0, 0, 0), rgb(0, 0, 0));&quot;&gt;&lt;span style=&quot;font-size: 16px;&quot;&gt;name&lt;/span&gt;&lt;/font&gt;&lt;/div&gt;&lt;div&gt;&lt;font style=&quot;color: light-dark(rgb(0, 0, 0), rgb(0, 0, 0));&quot;&gt;&lt;span style=&quot;font-size: 16px;&quot;&gt;Page_id (FK → Page.id)&lt;/span&gt;&lt;/font&gt;&lt;/div&gt;&lt;div&gt;&lt;br&gt;&lt;/div&gt;" style="text;strokeColor=light-dark(#36393D,#000000);fillColor=light-dark(#EEEEEE,#F9F9F9);align=left;verticalAlign=middle;spacingLeft=4;spacingRight=4;overflow=hidden;points=[[0,0.5],[1,0.5]];portConstraint=eastwest;rotatable=0;whiteSpace=wrap;html=1;" vertex="1" parent="z0Kl6_l-Gnp_nz9WpaOO-65">
          <mxGeometry y="30" width="140" height="115" as="geometry" />
        </mxCell>
        <mxCell id="z0Kl6_l-Gnp_nz9WpaOO-67" value="&lt;p style=&quot;margin-left:18.0pt&quot; class=&quot;MsoNormal&quot;&gt;&lt;b&gt;&lt;font style=&quot;font-size: 20px;&quot;&gt;Page&lt;/font&gt;&lt;/b&gt;&lt;span style=&quot;font-size:16.0pt;line-height:&amp;lt;br/&amp;gt;107%&quot;&gt;&lt;/span&gt;&lt;/p&gt;" style="swimlane;fontStyle=0;childLayout=stackLayout;horizontal=1;startSize=30;horizontalStack=0;resizeParent=1;resizeParentMax=0;resizeLast=0;collapsible=1;marginBottom=0;whiteSpace=wrap;html=1;fillColor=light-dark(#EEEEEE,#F9F9F9);strokeColor=light-dark(#36393D,#000000);fontColor=light-dark(#000000,#000000);" vertex="1" parent="1">
          <mxGeometry x="-539" y="678.17" width="138" height="139" as="geometry" />
        </mxCell>
        <mxCell id="z0Kl6_l-Gnp_nz9WpaOO-68" value="&lt;div&gt;&lt;div&gt;&lt;span style=&quot;font-size: 15px;&quot;&gt;id (PK)&lt;/span&gt;&lt;/div&gt;&lt;div&gt;&lt;span style=&quot;font-size: 15px;&quot;&gt;url&amp;nbsp;&lt;/span&gt;&lt;/div&gt;&lt;div&gt;&lt;span style=&quot;font-size: 15px;&quot;&gt;title&lt;/span&gt;&lt;/div&gt;&lt;div&gt;&lt;span style=&quot;font-size: 15px;&quot;&gt;description&lt;/span&gt;&lt;/div&gt;&lt;div&gt;&lt;span style=&quot;font-size: 15px;&quot;&gt;keywords&amp;nbsp;&lt;/span&gt;&lt;/div&gt;&lt;/div&gt;&lt;div&gt;&lt;br&gt;&lt;/div&gt;" style="text;strokeColor=light-dark(#36393D,#000000);fillColor=light-dark(#EEEEEE,#F9F9F9);align=left;verticalAlign=middle;spacingLeft=4;spacingRight=4;overflow=hidden;points=[[0,0.5],[1,0.5]];portConstraint=eastwest;rotatable=0;whiteSpace=wrap;html=1;fontColor=light-dark(#000000,#000000);" vertex="1" parent="z0Kl6_l-Gnp_nz9WpaOO-67">
          <mxGeometry y="30" width="138" height="109" as="geometry" />
        </mxCell>
        <mxCell id="z0Kl6_l-Gnp_nz9WpaOO-71" value="&lt;p class=&quot;MsoNormal&quot;&gt;&lt;span style=&quot;font-size: 20px;&quot;&gt;&lt;b&gt;ChapterToSimulator&lt;/b&gt;&lt;/span&gt;&lt;/p&gt;" style="swimlane;fontStyle=0;childLayout=stackLayout;horizontal=1;startSize=30;horizontalStack=0;resizeParent=1;resizeParentMax=0;resizeLast=0;collapsible=1;marginBottom=0;whiteSpace=wrap;html=1;fillColor=light-dark(#EEEEEE,#F9F9F9);strokeColor=light-dark(#36393D,#000000);fontColor=light-dark(#000000,#000000);" vertex="1" parent="1">
          <mxGeometry x="-570" y="435" width="222" height="162" as="geometry" />
        </mxCell>
        <mxCell id="z0Kl6_l-Gnp_nz9WpaOO-72" value="&lt;div&gt;&lt;font style=&quot;font-size: 15px;&quot;&gt;id (PK)&lt;/font&gt;&lt;/div&gt;&lt;div&gt;&lt;div&gt;&lt;span style=&quot;font-size: 15px; background-color: transparent;&quot;&gt;chapter_id (FK → Chapters.id)&lt;/span&gt;&lt;/div&gt;&lt;div&gt;&lt;span style=&quot;font-size: 15px; background-color: transparent;&quot;&gt;simulator_id (FK → Simulators.id)&lt;/span&gt;&lt;/div&gt;&lt;div&gt;&lt;span style=&quot;font-size: 15px; background-color: transparent;&quot;&gt;order_num&amp;nbsp;&lt;/span&gt;&lt;/div&gt;&lt;div&gt;&lt;font style=&quot;font-size: 15px;&quot;&gt;is_demo&lt;/font&gt;&lt;/div&gt;&lt;/div&gt;" style="text;strokeColor=light-dark(#36393D,#000000);fillColor=light-dark(#EEEEEE,#F9F9F9);align=left;verticalAlign=middle;spacingLeft=4;spacingRight=4;overflow=hidden;points=[[0,0.5],[1,0.5]];portConstraint=eastwest;rotatable=0;whiteSpace=wrap;html=1;fontColor=light-dark(#000000,#000000);" vertex="1" parent="z0Kl6_l-Gnp_nz9WpaOO-71">
          <mxGeometry y="30" width="222" height="132" as="geometry" />
        </mxCell>
        <mxCell id="z0Kl6_l-Gnp_nz9WpaOO-114" style="edgeStyle=orthogonalEdgeStyle;rounded=0;orthogonalLoop=1;jettySize=auto;html=1;exitX=0;exitY=0.5;exitDx=0;exitDy=0;entryX=1;entryY=0.5;entryDx=0;entryDy=0;strokeColor=light-dark(#000000,#0C0C0C);" edge="1" parent="1" source="z0Kl6_l-Gnp_nz9WpaOO-73" target="z0Kl6_l-Gnp_nz9WpaOO-77">
          <mxGeometry relative="1" as="geometry" />
        </mxCell>
        <mxCell id="z0Kl6_l-Gnp_nz9WpaOO-116" style="edgeStyle=orthogonalEdgeStyle;rounded=0;orthogonalLoop=1;jettySize=auto;html=1;exitX=0.5;exitY=0;exitDx=0;exitDy=0;entryX=0.5;entryY=1;entryDx=0;entryDy=0;strokeColor=light-dark(#000000,#181818);" edge="1" parent="1" source="z0Kl6_l-Gnp_nz9WpaOO-73" target="z0Kl6_l-Gnp_nz9WpaOO-87">
          <mxGeometry relative="1" as="geometry" />
        </mxCell>
        <mxCell id="z0Kl6_l-Gnp_nz9WpaOO-73" value="&lt;span style=&quot;font-size: 20px;&quot;&gt;&lt;b&gt;TestQuestion&lt;/b&gt;&lt;/span&gt;" style="swimlane;fontStyle=0;childLayout=stackLayout;horizontal=1;startSize=30;horizontalStack=0;resizeParent=1;resizeParentMax=0;resizeLast=0;collapsible=1;marginBottom=0;whiteSpace=wrap;html=1;fillColor=light-dark(#EEEEEE,#F9F9F9);strokeColor=light-dark(#36393D,#000000);fontColor=light-dark(#000000,#000000);" vertex="1" parent="1">
          <mxGeometry x="-805" y="212" width="140" height="154" as="geometry" />
        </mxCell>
        <mxCell id="z0Kl6_l-Gnp_nz9WpaOO-74" value="&lt;font style=&quot;font-size: 16px; color: light-dark(rgb(0, 0, 0), rgb(20, 20, 20));&quot;&gt;id (PK)&lt;/font&gt;&lt;div&gt;&lt;div&gt;&lt;font style=&quot;color: light-dark(rgb(0, 0, 0), rgb(20, 20, 20));&quot;&gt;&lt;span style=&quot;font-size: 16px;&quot;&gt;test_id (FK → Test.id)&lt;/span&gt;&lt;/font&gt;&lt;/div&gt;&lt;div&gt;&lt;font style=&quot;color: light-dark(rgb(0, 0, 0), rgb(20, 20, 20));&quot;&gt;&lt;span style=&quot;font-size: 16px;&quot;&gt;question_num&lt;/span&gt;&lt;/font&gt;&lt;/div&gt;&lt;div&gt;&lt;font style=&quot;color: light-dark(rgb(0, 0, 0), rgb(20, 20, 20));&quot;&gt;&lt;span style=&quot;font-size: 16px;&quot;&gt;text&amp;nbsp;&amp;nbsp;&lt;/span&gt;&lt;/font&gt;&lt;/div&gt;&lt;div&gt;&lt;span style=&quot;font-size: 16px; background-color: transparent;&quot;&gt;&lt;font style=&quot;color: light-dark(rgb(0, 0, 0), rgb(20, 20, 20));&quot;&gt;type&lt;/font&gt;&lt;/span&gt;&lt;/div&gt;&lt;/div&gt;" style="text;strokeColor=light-dark(#36393D,#000000);fillColor=light-dark(#EEEEEE,#F9F9F9);align=left;verticalAlign=middle;spacingLeft=4;spacingRight=4;overflow=hidden;points=[[0,0.5],[1,0.5]];portConstraint=eastwest;rotatable=0;whiteSpace=wrap;html=1;" vertex="1" parent="z0Kl6_l-Gnp_nz9WpaOO-73">
          <mxGeometry y="30" width="140" height="124" as="geometry" />
        </mxCell>
        <mxCell id="z0Kl6_l-Gnp_nz9WpaOO-75" value="&lt;p class=&quot;MsoNormal&quot;&gt;&lt;span style=&quot;font-size: 20px;&quot;&gt;&lt;b&gt;Test&lt;/b&gt;&lt;/span&gt;&lt;/p&gt;" style="swimlane;fontStyle=0;childLayout=stackLayout;horizontal=1;startSize=30;horizontalStack=0;resizeParent=1;resizeParentMax=0;resizeLast=0;collapsible=1;marginBottom=0;whiteSpace=wrap;html=1;fillColor=light-dark(#EEEEEE,#F9F9F9);strokeColor=light-dark(#36393D,#000000);fontColor=light-dark(#000000,#000000);" vertex="1" parent="1">
          <mxGeometry x="-614" y="162" width="138" height="135" as="geometry" />
        </mxCell>
        <mxCell id="z0Kl6_l-Gnp_nz9WpaOO-76" value="&lt;div&gt;&lt;font style=&quot;font-size: 15px;&quot;&gt;id (PK)&lt;/font&gt;&lt;/div&gt;&lt;div&gt;&lt;font style=&quot;font-size: 15px;&quot;&gt;name&lt;/font&gt;&lt;/div&gt;&lt;div&gt;&lt;br&gt;&lt;/div&gt;&lt;div&gt;&lt;br&gt;&lt;/div&gt;" style="text;strokeColor=light-dark(#36393D,#000000);fillColor=light-dark(#EEEEEE,#F9F9F9);align=left;verticalAlign=middle;spacingLeft=4;spacingRight=4;overflow=hidden;points=[[0,0.5],[1,0.5]];portConstraint=eastwest;rotatable=0;whiteSpace=wrap;html=1;fontColor=light-dark(#000000,#000000);" vertex="1" parent="z0Kl6_l-Gnp_nz9WpaOO-75">
          <mxGeometry y="30" width="138" height="105" as="geometry" />
        </mxCell>
        <mxCell id="z0Kl6_l-Gnp_nz9WpaOO-77" value="&lt;span style=&quot;font-size: 20px;&quot;&gt;&lt;b&gt;StepTest&lt;/b&gt;&lt;/span&gt;" style="swimlane;fontStyle=0;childLayout=stackLayout;horizontal=1;startSize=30;horizontalStack=0;resizeParent=1;resizeParentMax=0;resizeLast=0;collapsible=1;marginBottom=0;whiteSpace=wrap;html=1;fillColor=light-dark(#EEEEEE,#F9F9F9);strokeColor=light-dark(#36393D,#000000);fontColor=light-dark(#000000,#000000);" vertex="1" parent="1">
          <mxGeometry x="-1030" y="363" width="140" height="145" as="geometry" />
        </mxCell>
        <mxCell id="z0Kl6_l-Gnp_nz9WpaOO-78" value="&lt;font style=&quot;color: light-dark(rgb(0, 0, 0), rgb(14, 14, 14));&quot;&gt;&lt;font&gt;&lt;span style=&quot;font-size: 16px;&quot;&gt;id (PK, FK → Steps.id)&lt;/span&gt;&lt;/font&gt;&lt;br&gt;&lt;/font&gt;&lt;div&gt;&lt;font style=&quot;font-size: 16px; color: light-dark(rgb(0, 0, 0), rgb(14, 14, 14));&quot;&gt;test_question_id (FK → TestQuestion.id)&lt;/font&gt;&lt;/div&gt;" style="text;strokeColor=light-dark(#36393D,#000000);fillColor=light-dark(#EEEEEE,#F9F9F9);align=left;verticalAlign=middle;spacingLeft=4;spacingRight=4;overflow=hidden;points=[[0,0.5],[1,0.5]];portConstraint=eastwest;rotatable=0;whiteSpace=wrap;html=1;" vertex="1" parent="z0Kl6_l-Gnp_nz9WpaOO-77">
          <mxGeometry y="30" width="140" height="115" as="geometry" />
        </mxCell>
        <mxCell id="z0Kl6_l-Gnp_nz9WpaOO-79" value="&lt;p class=&quot;MsoNormal&quot;&gt;&lt;span style=&quot;font-size: 20px;&quot;&gt;&lt;b&gt;StepDialog&lt;/b&gt;&lt;/span&gt;&lt;/p&gt;" style="swimlane;fontStyle=0;childLayout=stackLayout;horizontal=1;startSize=30;horizontalStack=0;resizeParent=1;resizeParentMax=0;resizeLast=0;collapsible=1;marginBottom=0;whiteSpace=wrap;html=1;fillColor=light-dark(#EEEEEE,#F9F9F9);strokeColor=light-dark(#36393D,#000000);fontColor=light-dark(#000000,#000000);" vertex="1" parent="1">
          <mxGeometry x="-1232" y="297" width="138" height="135" as="geometry" />
        </mxCell>
        <mxCell id="z0Kl6_l-Gnp_nz9WpaOO-80" value="&lt;div&gt;&lt;font style=&quot;font-size: 15px;&quot;&gt;id (PK, FK → Steps.id)&lt;/font&gt;&lt;/div&gt;&lt;div&gt;&lt;div&gt;&lt;font style=&quot;font-size: 15px;&quot;&gt;direction&lt;/font&gt;&lt;/div&gt;&lt;div&gt;&lt;font style=&quot;font-size: 15px;&quot;&gt;author&lt;/font&gt;&lt;/div&gt;&lt;div&gt;&lt;font style=&quot;font-size: 15px;&quot;&gt;content&lt;/font&gt;&lt;/div&gt;&lt;/div&gt;" style="text;strokeColor=light-dark(#36393D,#000000);fillColor=light-dark(#EEEEEE,#F9F9F9);align=left;verticalAlign=middle;spacingLeft=4;spacingRight=4;overflow=hidden;points=[[0,0.5],[1,0.5]];portConstraint=eastwest;rotatable=0;whiteSpace=wrap;html=1;fontColor=light-dark(#000000,#000000);" vertex="1" parent="z0Kl6_l-Gnp_nz9WpaOO-79">
          <mxGeometry y="30" width="138" height="105" as="geometry" />
        </mxCell>
        <mxCell id="z0Kl6_l-Gnp_nz9WpaOO-107" style="edgeStyle=orthogonalEdgeStyle;rounded=0;orthogonalLoop=1;jettySize=auto;html=1;exitX=1;exitY=0.5;exitDx=0;exitDy=0;entryX=0;entryY=0.75;entryDx=0;entryDy=0;strokeColor=light-dark(#000000,#060606);" edge="1" parent="1" source="z0Kl6_l-Gnp_nz9WpaOO-81" target="z0Kl6_l-Gnp_nz9WpaOO-89">
          <mxGeometry relative="1" as="geometry" />
        </mxCell>
        <mxCell id="z0Kl6_l-Gnp_nz9WpaOO-81" value="&lt;span style=&quot;font-size: 20px;&quot;&gt;&lt;b&gt;StepText&lt;/b&gt;&lt;/span&gt;" style="swimlane;fontStyle=0;childLayout=stackLayout;horizontal=1;startSize=30;horizontalStack=0;resizeParent=1;resizeParentMax=0;resizeLast=0;collapsible=1;marginBottom=0;whiteSpace=wrap;html=1;fillColor=light-dark(#EEEEEE,#F9F9F9);strokeColor=light-dark(#36393D,#000000);fontColor=light-dark(#000000,#000000);" vertex="1" parent="1">
          <mxGeometry x="-1263" y="697" width="140" height="145" as="geometry" />
        </mxCell>
        <mxCell id="z0Kl6_l-Gnp_nz9WpaOO-82" value="&lt;font style=&quot;color: light-dark(rgb(0, 0, 0), rgb(0, 0, 0)); font-size: 16px;&quot;&gt;id (PK,&amp;nbsp;&lt;/font&gt;&lt;span style=&quot;background-color: transparent;&quot;&gt;&lt;font style=&quot;color: light-dark(rgb(0, 0, 0), rgb(8, 8, 8));&quot;&gt;&lt;span style=&quot;font-size: 16px;&quot;&gt;FK → &lt;/span&gt;&lt;span style=&quot;font-size: 16px;&quot;&gt;Steps.id&lt;/span&gt;&lt;span style=&quot;font-size: 16px;&quot;&gt;)&lt;/span&gt;&lt;/font&gt;&lt;/span&gt;&lt;div&gt;&lt;font style=&quot;color: light-dark(rgb(0, 0, 0), rgb(0, 0, 0)); font-size: 16px;&quot;&gt;content&lt;/font&gt;&lt;/div&gt;" style="text;strokeColor=light-dark(#36393D,#000000);fillColor=light-dark(#EEEEEE,#F9F9F9);align=left;verticalAlign=middle;spacingLeft=4;spacingRight=4;overflow=hidden;points=[[0,0.5],[1,0.5]];portConstraint=eastwest;rotatable=0;whiteSpace=wrap;html=1;" vertex="1" parent="z0Kl6_l-Gnp_nz9WpaOO-81">
          <mxGeometry y="30" width="140" height="115" as="geometry" />
        </mxCell>
        <mxCell id="z0Kl6_l-Gnp_nz9WpaOO-108" style="edgeStyle=orthogonalEdgeStyle;rounded=0;orthogonalLoop=1;jettySize=auto;html=1;entryX=0;entryY=0.5;entryDx=0;entryDy=0;strokeColor=light-dark(#000000,#181818);" edge="1" parent="1" source="z0Kl6_l-Gnp_nz9WpaOO-83" target="z0Kl6_l-Gnp_nz9WpaOO-89">
          <mxGeometry relative="1" as="geometry" />
        </mxCell>
        <mxCell id="z0Kl6_l-Gnp_nz9WpaOO-83" value="&lt;p class=&quot;MsoNormal&quot;&gt;&lt;span style=&quot;font-size: 20px;&quot;&gt;&lt;b&gt;StepVideo&lt;/b&gt;&lt;/span&gt;&lt;/p&gt;" style="swimlane;fontStyle=0;childLayout=stackLayout;horizontal=1;startSize=30;horizontalStack=0;resizeParent=1;resizeParentMax=0;resizeLast=0;collapsible=1;marginBottom=0;whiteSpace=wrap;html=1;fillColor=light-dark(#EEEEEE,#F9F9F9);strokeColor=light-dark(#36393D,#000000);fontColor=light-dark(#000000,#000000);" vertex="1" parent="1">
          <mxGeometry x="-1300" y="485" width="138" height="135" as="geometry" />
        </mxCell>
        <mxCell id="z0Kl6_l-Gnp_nz9WpaOO-84" value="&lt;div&gt;&lt;font style=&quot;font-size: 15px;&quot;&gt;id&amp;nbsp;&lt;/font&gt;&lt;font style=&quot;background-color: transparent; color: light-dark(rgb(0, 0, 0), rgb(0, 0, 0)); font-size: 16px;&quot;&gt;(PK,&amp;nbsp;&lt;/font&gt;&lt;span style=&quot;background-color: transparent; color: rgb(255, 255, 255);&quot;&gt;&lt;font style=&quot;color: light-dark(rgb(0, 0, 0), rgb(8, 8, 8));&quot;&gt;&lt;span style=&quot;font-size: 16px;&quot;&gt;FK →&amp;nbsp;&lt;/span&gt;&lt;span style=&quot;font-size: 16px;&quot;&gt;Steps.id&lt;/span&gt;&lt;span style=&quot;font-size: 16px;&quot;&gt;)&lt;/span&gt;&lt;/font&gt;&lt;/span&gt;&lt;/div&gt;&lt;div&gt;&lt;font style=&quot;font-size: 15px;&quot;&gt;video_url&lt;/font&gt;&lt;/div&gt;&lt;div&gt;&lt;br&gt;&lt;/div&gt;" style="text;strokeColor=light-dark(#36393D,#000000);fillColor=light-dark(#EEEEEE,#F9F9F9);align=left;verticalAlign=middle;spacingLeft=4;spacingRight=4;overflow=hidden;points=[[0,0.5],[1,0.5]];portConstraint=eastwest;rotatable=0;whiteSpace=wrap;html=1;fontColor=light-dark(#000000,#000000);" vertex="1" parent="z0Kl6_l-Gnp_nz9WpaOO-83">
          <mxGeometry y="30" width="138" height="105" as="geometry" />
        </mxCell>
        <mxCell id="z0Kl6_l-Gnp_nz9WpaOO-118" style="edgeStyle=orthogonalEdgeStyle;rounded=0;orthogonalLoop=1;jettySize=auto;html=1;exitX=1;exitY=0.5;exitDx=0;exitDy=0;entryX=0;entryY=0.5;entryDx=0;entryDy=0;strokeColor=light-dark(#000000,#0E0E0E);" edge="1" parent="1" source="z0Kl6_l-Gnp_nz9WpaOO-85" target="z0Kl6_l-Gnp_nz9WpaOO-92">
          <mxGeometry relative="1" as="geometry" />
        </mxCell>
        <mxCell id="z0Kl6_l-Gnp_nz9WpaOO-85" value="&lt;font style=&quot;font-size: 20px;&quot;&gt;&lt;b&gt;UserAnswer&lt;/b&gt;&lt;/font&gt;" style="swimlane;fontStyle=0;childLayout=stackLayout;horizontal=1;startSize=30;horizontalStack=0;resizeParent=1;resizeParentMax=0;resizeLast=0;collapsible=1;marginBottom=0;whiteSpace=wrap;html=1;fillColor=light-dark(#EEEEEE,#F9F9F9);strokeColor=light-dark(#36393D,#000000);fontColor=light-dark(#000000,#000000);" vertex="1" parent="1">
          <mxGeometry x="-682" y="-72" width="158" height="196" as="geometry" />
        </mxCell>
        <mxCell id="z0Kl6_l-Gnp_nz9WpaOO-86" value="&lt;div&gt;&lt;span style=&quot;font-size: 15px;&quot;&gt;&lt;font style=&quot;color: light-dark(rgb(0, 0, 0), rgb(8, 8, 8));&quot;&gt;id (PK)&lt;/font&gt;&lt;/span&gt;&lt;/div&gt;&lt;div style=&quot;color: rgb(0, 0, 0);&quot;&gt;&lt;span style=&quot;font-size: 15px;&quot;&gt;&lt;font style=&quot;color: light-dark(rgb(0, 0, 0), rgb(8, 8, 8));&quot;&gt;user_id (FK → Users.id)&lt;/font&gt;&lt;/span&gt;&lt;/div&gt;&lt;div style=&quot;color: rgb(0, 0, 0);&quot;&gt;&lt;span style=&quot;font-size: 15px;&quot;&gt;&lt;font style=&quot;color: light-dark(rgb(0, 0, 0), rgb(8, 8, 8));&quot;&gt;question_id&amp;nbsp; (FK → TestQuestion.id)&lt;/font&gt;&lt;/span&gt;&lt;/div&gt;&lt;div style=&quot;color: rgb(0, 0, 0);&quot;&gt;&lt;span style=&quot;font-size: 15px;&quot;&gt;&lt;font style=&quot;color: light-dark(rgb(0, 0, 0), rgb(8, 8, 8));&quot;&gt;answer_text&amp;nbsp;&lt;/font&gt;&lt;/span&gt;&lt;/div&gt;&lt;div style=&quot;color: rgb(0, 0, 0);&quot;&gt;&lt;span style=&quot;font-size: 15px;&quot;&gt;&lt;font style=&quot;color: light-dark(rgb(0, 0, 0), rgb(8, 8, 8));&quot;&gt;answer_option_id (FK → TestAnswer.id)&lt;/font&gt;&lt;/span&gt;&lt;/div&gt;" style="text;strokeColor=light-dark(#36393D,#000000);fillColor=light-dark(#EEEEEE,#F9F9F9);align=left;verticalAlign=middle;spacingLeft=4;spacingRight=4;overflow=hidden;points=[[0,0.5],[1,0.5]];portConstraint=eastwest;rotatable=0;whiteSpace=wrap;html=1;" vertex="1" parent="z0Kl6_l-Gnp_nz9WpaOO-85">
          <mxGeometry y="30" width="158" height="166" as="geometry" />
        </mxCell>
        <mxCell id="z0Kl6_l-Gnp_nz9WpaOO-117" style="edgeStyle=orthogonalEdgeStyle;rounded=0;orthogonalLoop=1;jettySize=auto;html=1;exitX=1;exitY=0.5;exitDx=0;exitDy=0;entryX=0;entryY=0.5;entryDx=0;entryDy=0;strokeColor=light-dark(#000000,#0A0A0A);" edge="1" parent="1" source="z0Kl6_l-Gnp_nz9WpaOO-87" target="z0Kl6_l-Gnp_nz9WpaOO-85">
          <mxGeometry relative="1" as="geometry" />
        </mxCell>
        <mxCell id="z0Kl6_l-Gnp_nz9WpaOO-87" value="&lt;p class=&quot;MsoNormal&quot;&gt;&lt;b&gt;&lt;span style=&quot;line-height: 107%;&quot;&gt;&lt;font style=&quot;font-size: 20px;&quot;&gt;TestAnswer&lt;/font&gt;&lt;/span&gt;&lt;/b&gt;&lt;span style=&quot;font-size:16.0pt;line-height:107%&quot;&gt;&lt;/span&gt;&lt;/p&gt;" style="swimlane;fontStyle=0;childLayout=stackLayout;horizontal=1;startSize=30;horizontalStack=0;resizeParent=1;resizeParentMax=0;resizeLast=0;collapsible=1;marginBottom=0;whiteSpace=wrap;html=1;fillColor=light-dark(#EEEEEE,#F9F9F9);strokeColor=light-dark(#36393D,#000000);fontColor=light-dark(#000000,#000000);" vertex="1" parent="1">
          <mxGeometry x="-870" y="-58" width="138" height="135" as="geometry" />
        </mxCell>
        <mxCell id="z0Kl6_l-Gnp_nz9WpaOO-88" value="&lt;div&gt;&lt;font style=&quot;font-size: 15px;&quot;&gt;id (PK)&lt;/font&gt;&lt;/div&gt;&lt;div&gt;&lt;div&gt;&lt;span style=&quot;font-size: 15px;&quot;&gt;uestion_id (FK → TestQuestion.id)&lt;/span&gt;&lt;/div&gt;&lt;div&gt;&lt;span style=&quot;font-size: 15px;&quot;&gt;option_text&lt;/span&gt;&lt;/div&gt;&lt;div&gt;&lt;span style=&quot;font-size: 15px;&quot;&gt;is_correct&lt;/span&gt;&lt;/div&gt;&lt;/div&gt;&lt;div&gt;&lt;br&gt;&lt;/div&gt;" style="text;strokeColor=light-dark(#36393D,#000000);fillColor=light-dark(#EEEEEE,#F9F9F9);align=left;verticalAlign=middle;spacingLeft=4;spacingRight=4;overflow=hidden;points=[[0,0.5],[1,0.5]];portConstraint=eastwest;rotatable=0;whiteSpace=wrap;html=1;fontColor=light-dark(#000000,#000000);" vertex="1" parent="z0Kl6_l-Gnp_nz9WpaOO-87">
          <mxGeometry y="30" width="138" height="105" as="geometry" />
        </mxCell>
        <mxCell id="z0Kl6_l-Gnp_nz9WpaOO-113" style="edgeStyle=orthogonalEdgeStyle;rounded=0;orthogonalLoop=1;jettySize=auto;html=1;exitX=0.5;exitY=0;exitDx=0;exitDy=0;entryX=0.5;entryY=1;entryDx=0;entryDy=0;strokeColor=light-dark(#000000,#121212);" edge="1" parent="1" source="z0Kl6_l-Gnp_nz9WpaOO-89" target="z0Kl6_l-Gnp_nz9WpaOO-77">
          <mxGeometry relative="1" as="geometry" />
        </mxCell>
        <mxCell id="z0Kl6_l-Gnp_nz9WpaOO-89" value="&lt;font style=&quot;font-size: 20px;&quot;&gt;&lt;b&gt;Step&lt;/b&gt;&lt;/font&gt;" style="swimlane;fontStyle=0;childLayout=stackLayout;horizontal=1;startSize=30;horizontalStack=0;resizeParent=1;resizeParentMax=0;resizeLast=0;collapsible=1;marginBottom=0;whiteSpace=wrap;html=1;fillColor=light-dark(#EEEEEE,#F9F9F9);strokeColor=light-dark(#36393D,#000000);fontColor=light-dark(#000000,#000000);" vertex="1" parent="1">
          <mxGeometry x="-1059" y="560.5" width="140" height="145" as="geometry" />
        </mxCell>
        <mxCell id="z0Kl6_l-Gnp_nz9WpaOO-90" value="&lt;font style=&quot;font-size: 15px; color: light-dark(rgb(0, 0, 0), rgb(8, 8, 8));&quot;&gt;id (PK)&lt;/font&gt;&lt;div&gt;&lt;font style=&quot;&quot;&gt;&lt;div style=&quot;color: light-dark(rgb(0, 0, 0), rgb(8, 8, 8)); font-size: 15px;&quot;&gt;chapter_id (FK → Chapter.id)&lt;/div&gt;&lt;div style=&quot;color: light-dark(rgb(0, 0, 0), rgb(8, 8, 8)); font-size: 15px;&quot;&gt;type&lt;/div&gt;&lt;div style=&quot;color: light-dark(rgb(0, 0, 0), rgb(8, 8, 8)); font-size: 15px;&quot;&gt;order_num&lt;/div&gt;&lt;/font&gt;&lt;/div&gt;" style="text;strokeColor=light-dark(#36393D,#000000);fillColor=light-dark(#EEEEEE,#F9F9F9);align=left;verticalAlign=middle;spacingLeft=4;spacingRight=4;overflow=hidden;points=[[0,0.5],[1,0.5]];portConstraint=eastwest;rotatable=0;whiteSpace=wrap;html=1;" vertex="1" parent="z0Kl6_l-Gnp_nz9WpaOO-89">
          <mxGeometry y="30" width="140" height="115" as="geometry" />
        </mxCell>
        <mxCell id="z0Kl6_l-Gnp_nz9WpaOO-91" value="&lt;p class=&quot;MsoNormal&quot;&gt;&lt;span style=&quot;font-size: 20px;&quot;&gt;&lt;b&gt;Users&lt;/b&gt;&lt;/span&gt;&lt;/p&gt;" style="swimlane;fontStyle=0;childLayout=stackLayout;horizontal=1;startSize=30;horizontalStack=0;resizeParent=1;resizeParentMax=0;resizeLast=0;collapsible=1;marginBottom=0;whiteSpace=wrap;html=1;fillColor=light-dark(#EEEEEE,#F9F9F9);strokeColor=light-dark(#36393D,#000000);fontColor=light-dark(#000000,#000000);" vertex="1" parent="1">
          <mxGeometry x="-442" y="-50" width="138" height="135" as="geometry" />
        </mxCell>
        <mxCell id="z0Kl6_l-Gnp_nz9WpaOO-92" value="&lt;div&gt;&lt;font style=&quot;font-size: 15px;&quot;&gt;id (PK)&lt;/font&gt;&lt;/div&gt;&lt;div&gt;&lt;div&gt;&lt;span style=&quot;font-size: 15px;&quot;&gt;username&lt;/span&gt;&lt;/div&gt;&lt;div&gt;&lt;span style=&quot;font-size: 15px;&quot;&gt;first_name&lt;/span&gt;&lt;/div&gt;&lt;div&gt;&lt;span style=&quot;font-size: 15px;&quot;&gt;last_name&lt;/span&gt;&lt;/div&gt;&lt;div&gt;&lt;span style=&quot;font-size: 15px;&quot;&gt;email&lt;/span&gt;&lt;/div&gt;&lt;/div&gt;&lt;div&gt;&lt;br&gt;&lt;/div&gt;" style="text;strokeColor=light-dark(#36393D,#000000);fillColor=light-dark(#EEEEEE,#F9F9F9);align=left;verticalAlign=middle;spacingLeft=4;spacingRight=4;overflow=hidden;points=[[0,0.5],[1,0.5]];portConstraint=eastwest;rotatable=0;whiteSpace=wrap;html=1;fontColor=light-dark(#000000,#000000);" vertex="1" parent="z0Kl6_l-Gnp_nz9WpaOO-91">
          <mxGeometry y="30" width="138" height="105" as="geometry" />
        </mxCell>
        <mxCell id="z0Kl6_l-Gnp_nz9WpaOO-96" value="" style="endArrow=classic;html=1;rounded=0;" edge="1" parent="1">
          <mxGeometry width="50" height="50" relative="1" as="geometry">
            <mxPoint x="-342" y="32" as="sourcePoint" />
            <mxPoint x="-292" y="-18" as="targetPoint" />
          </mxGeometry>
        </mxCell>
        <mxCell id="z0Kl6_l-Gnp_nz9WpaOO-97" value="" style="endArrow=classic;html=1;rounded=0;exitX=0;exitY=0.25;exitDx=0;exitDy=0;fontColor=light-dark(#000000,#0A0A0A);" edge="1" parent="1" source="z0Kl6_l-Gnp_nz9WpaOO-13">
          <mxGeometry width="50" height="50" relative="1" as="geometry">
            <mxPoint x="-314" y="732.92" as="sourcePoint" />
            <mxPoint x="-402" y="673.92" as="targetPoint" />
          </mxGeometry>
        </mxCell>
        <mxCell id="z0Kl6_l-Gnp_nz9WpaOO-99" style="edgeStyle=orthogonalEdgeStyle;rounded=0;orthogonalLoop=1;jettySize=auto;html=1;entryX=1.028;entryY=0.131;entryDx=0;entryDy=0;entryPerimeter=0;fillColor=light-dark(transparent,#0C0C0C);fontColor=light-dark(#000000,#000000);strokeColor=light-dark(#000000,#0C0C0C);" edge="1" parent="1" target="z0Kl6_l-Gnp_nz9WpaOO-68">
          <mxGeometry relative="1" as="geometry">
            <mxPoint x="-277" y="720.92" as="sourcePoint" />
            <Array as="points">
              <mxPoint x="-358" y="661.92" />
              <mxPoint x="-358" y="672.92" />
            </Array>
          </mxGeometry>
        </mxCell>
        <mxCell id="z0Kl6_l-Gnp_nz9WpaOO-103" style="edgeStyle=orthogonalEdgeStyle;rounded=0;orthogonalLoop=1;jettySize=auto;html=1;entryX=-0.004;entryY=0.183;entryDx=0;entryDy=0;entryPerimeter=0;strokeColor=light-dark(#000000,#0E0E0E);exitX=0.986;exitY=0.641;exitDx=0;exitDy=0;exitPerimeter=0;" edge="1" parent="1" source="z0Kl6_l-Gnp_nz9WpaOO-66" target="z0Kl6_l-Gnp_nz9WpaOO-68">
          <mxGeometry relative="1" as="geometry" />
        </mxCell>
        <mxCell id="z0Kl6_l-Gnp_nz9WpaOO-109" style="edgeStyle=orthogonalEdgeStyle;rounded=0;orthogonalLoop=1;jettySize=auto;html=1;exitX=1;exitY=0.5;exitDx=0;exitDy=0;strokeColor=light-dark(#000000,#0E0E0E);entryX=-0.033;entryY=0.31;entryDx=0;entryDy=0;entryPerimeter=0;" edge="1" parent="1" source="z0Kl6_l-Gnp_nz9WpaOO-80" target="z0Kl6_l-Gnp_nz9WpaOO-90">
          <mxGeometry relative="1" as="geometry">
            <mxPoint x="-1067.111111111111" y="624.3333197699653" as="targetPoint" />
          </mxGeometry>
        </mxCell>
        <mxCell id="z0Kl6_l-Gnp_nz9WpaOO-115" style="edgeStyle=orthogonalEdgeStyle;rounded=0;orthogonalLoop=1;jettySize=auto;html=1;exitX=1;exitY=0.5;exitDx=0;exitDy=0;entryX=0;entryY=0.5;entryDx=0;entryDy=0;strokeColor=light-dark(#000000,#040404);" edge="1" parent="1" source="z0Kl6_l-Gnp_nz9WpaOO-74" target="z0Kl6_l-Gnp_nz9WpaOO-75">
          <mxGeometry relative="1" as="geometry" />
        </mxCell>
        <mxCell id="z0Kl6_l-Gnp_nz9WpaOO-123" value="&lt;div style=&quot;padding-left: 20px;&quot;&gt;&lt;div&gt;&lt;font style=&quot;font-size: 16px;&quot;&gt;Описание таблиц&lt;/font&gt;&lt;/div&gt;&lt;div&gt;&lt;div&gt;&lt;br&gt;&lt;/div&gt;&lt;div&gt;&lt;font style=&quot;font-size: 16px;&quot;&gt;1. Simulator. Хранит информацию об учебных симуляторах&lt;/font&gt;&lt;/div&gt;&lt;div&gt;&lt;font style=&quot;font-size: 16px;&quot;&gt;id (PK): Уникальный идентификатор симулятора.&lt;/font&gt;&lt;/div&gt;&lt;div&gt;&lt;font style=&quot;font-size: 16px;&quot;&gt;name: Название симулятора.&lt;/font&gt;&lt;/div&gt;&lt;div&gt;&lt;font style=&quot;font-size: 16px;&quot;&gt;cost: Цена симулятора.&lt;/font&gt;&lt;/div&gt;&lt;div&gt;&lt;font style=&quot;font-size: 16px;&quot;&gt;page_id (FK -&amp;gt; Page.id): Ссылка на связанную веб-страницу.&lt;/font&gt;&lt;/div&gt;&lt;div&gt;&lt;font style=&quot;font-size: 16px;&quot;&gt;&lt;br&gt;&lt;/font&gt;&lt;/div&gt;&lt;div&gt;&lt;font style=&quot;font-size: 16px;&quot;&gt;2. Page. Хранит SEO-информацию для любой страницы сайта, имеющей уникальный URL.&lt;/font&gt;&lt;/div&gt;&lt;div&gt;&lt;font style=&quot;font-size: 16px;&quot;&gt;id (PK): Уникальный идентификатор страницы.&lt;/font&gt;&lt;/div&gt;&lt;div&gt;&lt;font style=&quot;font-size: 16px;&quot;&gt;url : Уникальный URL-адрес страницы.&lt;/font&gt;&lt;/div&gt;&lt;div&gt;&lt;font style=&quot;font-size: 16px;&quot;&gt;title: Заголовок страницы.&lt;/font&gt;&lt;/div&gt;&lt;div&gt;&lt;font style=&quot;font-size: 16px;&quot;&gt;description: Описание страницы.&lt;/font&gt;&lt;/div&gt;&lt;div&gt;&lt;font style=&quot;font-size: 16px;&quot;&gt;keywords: Ключевые слова.&lt;/font&gt;&lt;/div&gt;&lt;div&gt;&lt;font style=&quot;font-size: 16px;&quot;&gt;&lt;br&gt;&lt;/font&gt;&lt;/div&gt;&lt;div&gt;&lt;font style=&quot;font-size: 16px;&quot;&gt;3. Chapter. Глава является частью симулятора и состоит из шагов.&lt;/font&gt;&lt;/div&gt;&lt;div&gt;&lt;font style=&quot;font-size: 16px;&quot;&gt;id (PK): Уникальный идентификатор главы.&lt;/font&gt;&lt;/div&gt;&lt;div&gt;&lt;font style=&quot;font-size: 16px;&quot;&gt;name: Название главы.&lt;/font&gt;&lt;/div&gt;&lt;div&gt;&lt;font style=&quot;font-size: 16px;&quot;&gt;page_id: Ссылка, если у главы есть своя отдельная страница.&lt;/font&gt;&lt;/div&gt;&lt;div&gt;&lt;font style=&quot;font-size: 16px;&quot;&gt;&lt;br&gt;&lt;/font&gt;&lt;/div&gt;&lt;div&gt;&lt;font style=&quot;font-size: 16px;&quot;&gt;4. Step. Базовая сущность для одного элемента контента внутри главы.&amp;nbsp;&lt;/font&gt;&lt;/div&gt;&lt;div&gt;&lt;font style=&quot;font-size: 16px;&quot;&gt;id (PK): Уникальный идентификатор шага.&lt;/font&gt;&lt;/div&gt;&lt;div&gt;&lt;font style=&quot;font-size: 16px;&quot;&gt;chapter_id (FK -&amp;gt; Chapter.id): Идентификатор главы, к которой принадлежит шаг.&lt;/font&gt;&lt;/div&gt;&lt;div&gt;&lt;font style=&quot;font-size: 16px;&quot;&gt;order_num: Порядковый номер шага внутри главы.&lt;/font&gt;&lt;/div&gt;&lt;div&gt;&lt;font style=&quot;font-size: 16px;&quot;&gt;type: Тип шага (&#39;text&#39;, &#39;video&#39;, &#39;dialog&#39;, &#39;test&#39;).&lt;/font&gt;&lt;/div&gt;&lt;div&gt;&lt;br&gt;&lt;/div&gt;&lt;div&gt;&lt;font style=&quot;font-size: 16px;&quot;&gt;&lt;br&gt;&lt;/font&gt;&lt;/div&gt;&lt;div&gt;&lt;font style=&quot;font-size: 16px;&quot;&gt;5. StepText&lt;/font&gt;&lt;/div&gt;&lt;div&gt;&lt;font style=&quot;font-size: 16px;&quot;&gt;id (PK, FK -&amp;gt; Step.id): Идентификатор.&lt;/font&gt;&lt;/div&gt;&lt;div&gt;&lt;font style=&quot;font-size: 16px;&quot;&gt;content: Текстовое содержимое шага.&lt;/font&gt;&lt;/div&gt;&lt;div&gt;&lt;font style=&quot;font-size: 16px;&quot;&gt;&lt;br&gt;&lt;/font&gt;&lt;/div&gt;&lt;div&gt;&lt;font style=&quot;font-size: 16px;&quot;&gt;6. StepVideo&lt;/font&gt;&lt;/div&gt;&lt;div&gt;&lt;font style=&quot;font-size: 16px;&quot;&gt;id (PK, FK -&amp;gt; Step.id): Идентификатор.&lt;/font&gt;&lt;/div&gt;&lt;div&gt;&lt;font style=&quot;font-size: 16px;&quot;&gt;video_url: Ссылка на видеофайл.&lt;/font&gt;&lt;/div&gt;&lt;div&gt;&lt;font style=&quot;font-size: 16px;&quot;&gt;&lt;br&gt;&lt;/font&gt;&lt;/div&gt;&lt;div&gt;&lt;font style=&quot;font-size: 16px;&quot;&gt;7. StepDialog&lt;/font&gt;&lt;/div&gt;&lt;div&gt;&lt;font style=&quot;font-size: 16px;&quot;&gt;id (PK, FK -&amp;gt; Step.id): Идентификатор.&lt;/font&gt;&lt;/div&gt;&lt;div&gt;&lt;font style=&quot;font-size: 16px;&quot;&gt;direction: Направление сообщения.&lt;/font&gt;&lt;/div&gt;&lt;div&gt;&lt;font style=&quot;font-size: 16px;&quot;&gt;author: Автор сообщения.&amp;nbsp;&lt;/font&gt;&lt;/div&gt;&lt;div&gt;&lt;font style=&quot;font-size: 16px;&quot;&gt;content: Текст сообщения.&lt;/font&gt;&lt;/div&gt;&lt;div&gt;&lt;font style=&quot;font-size: 16px;&quot;&gt;&lt;br&gt;&lt;/font&gt;&lt;/div&gt;&lt;div&gt;&lt;font style=&quot;font-size: 16px;&quot;&gt;8. StepTest Связывает шаг в уроке с конкретным вопросом из теста.&lt;/font&gt;&lt;/div&gt;&lt;div&gt;&lt;font style=&quot;font-size: 16px;&quot;&gt;id (PK, FK -&amp;gt; Step.id): Идентификатор.&lt;/font&gt;&lt;/div&gt;&lt;div&gt;&lt;font style=&quot;font-size: 16px;&quot;&gt;test_question_id (FK -&amp;gt; TestQuestion.id): Ссылка на вопрос, который будет показан в этом шаге.&lt;/font&gt;&lt;/div&gt;&lt;div&gt;&lt;br&gt;&lt;/div&gt;&lt;div&gt;&lt;font style=&quot;font-size: 16px;&quot;&gt;&lt;br&gt;&lt;/font&gt;&lt;/div&gt;&lt;div&gt;&lt;font style=&quot;font-size: 16px;&quot;&gt;9. Test. Объединяет вопросы в один тест, который может использоваться как лид-магнит.&lt;/font&gt;&lt;/div&gt;&lt;div&gt;&lt;font style=&quot;font-size: 16px;&quot;&gt;id(&lt;/font&gt;&lt;span style=&quot;font-size: 16px; background-color: transparent; color: light-dark(rgb(0, 0, 0), rgb(255, 255, 255));&quot;&gt;PK): Уникальный идентификатор теста.&lt;/span&gt;&lt;/div&gt;&lt;div&gt;&lt;font style=&quot;font-size: 16px;&quot;&gt;name (VARCHAR): Название теста.&lt;/font&gt;&lt;/div&gt;&lt;div&gt;&lt;font style=&quot;font-size: 16px;&quot;&gt;&lt;br&gt;&lt;/font&gt;&lt;/div&gt;&lt;div&gt;&lt;font style=&quot;font-size: 16px;&quot;&gt;10. TestQuestion. Хранит информацию о конкретном вопросе.&lt;/font&gt;&lt;/div&gt;&lt;div&gt;&lt;font style=&quot;font-size: 16px;&quot;&gt;id (PK): Уникальный идентификатор вопроса.&lt;/font&gt;&lt;/div&gt;&lt;div&gt;&lt;font style=&quot;font-size: 16px;&quot;&gt;test_id (FK -&amp;gt; Test.id): Ссылка на группу тестов, если вопрос является частью большого теста.&lt;/font&gt;&lt;/div&gt;&lt;div&gt;&lt;font style=&quot;font-size: 16px;&quot;&gt;question_num: Порядковый номер вопроса в тесте.&lt;/font&gt;&lt;/div&gt;&lt;div&gt;&lt;font style=&quot;font-size: 16px;&quot;&gt;text : Текст вопроса.&lt;/font&gt;&lt;/div&gt;&lt;div&gt;&lt;font style=&quot;font-size: 16px;&quot;&gt;type: Тип вопроса.&lt;/font&gt;&lt;/div&gt;&lt;div&gt;&lt;font style=&quot;font-size: 16px;&quot;&gt;correct_answer_text: Текст правильного ответа.&lt;/font&gt;&lt;/div&gt;&lt;div&gt;&lt;font style=&quot;font-size: 16px;&quot;&gt;&lt;br&gt;&lt;/font&gt;&lt;/div&gt;&lt;div&gt;&lt;font style=&quot;font-size: 16px;&quot;&gt;11. TestAnswer. Вариант ответа для вопроса с выбором.&lt;/font&gt;&lt;/div&gt;&lt;div&gt;&lt;font style=&quot;font-size: 16px;&quot;&gt;id (PK): Уникальный идентификатор варианта ответа.&lt;/font&gt;&lt;/div&gt;&lt;div&gt;&lt;font style=&quot;font-size: 16px;&quot;&gt;question_id (FK -&amp;gt; TestQuestion.id): Вопрос, к которому относится этот вариант.&lt;/font&gt;&lt;/div&gt;&lt;div&gt;&lt;font style=&quot;font-size: 16px;&quot;&gt;option_text: Текст варианта ответа.&lt;/font&gt;&lt;/div&gt;&lt;div&gt;&lt;font style=&quot;font-size: 16px;&quot;&gt;is_correct: Флаг, указывающий, является ли этот вариант правильным.&lt;/font&gt;&lt;/div&gt;&lt;div&gt;&lt;br&gt;&lt;/div&gt;&lt;div&gt;&lt;font style=&quot;font-size: 16px;&quot;&gt;&lt;br&gt;&lt;/font&gt;&lt;/div&gt;&lt;div&gt;&lt;font style=&quot;font-size: 16px;&quot;&gt;12. Users&amp;nbsp;&lt;/font&gt;&lt;/div&gt;&lt;div&gt;&lt;font style=&quot;font-size: 16px;&quot;&gt;id (PK): Уникальный идентификатор пользователя.&lt;/font&gt;&lt;/div&gt;&lt;div&gt;&lt;font style=&quot;font-size: 16px;&quot;&gt;username: Логин пользователя.&lt;/font&gt;&lt;/div&gt;&lt;div&gt;&lt;font style=&quot;font-size: 16px;&quot;&gt;first_name: Имя пользователя.&lt;/font&gt;&lt;/div&gt;&lt;div&gt;&lt;font style=&quot;font-size: 16px;&quot;&gt;last_name: Фамилия пользователя.&lt;/font&gt;&lt;/div&gt;&lt;div&gt;&lt;font style=&quot;font-size: 16px;&quot;&gt;email: Адрес электронной почты.&lt;/font&gt;&lt;/div&gt;&lt;div&gt;&lt;font style=&quot;font-size: 16px;&quot;&gt;&lt;br&gt;&lt;/font&gt;&lt;/div&gt;&lt;div&gt;&lt;font style=&quot;font-size: 16px;&quot;&gt;13. UserAnswer. Сохраняет ответ пользователя на вопрос теста.&lt;/font&gt;&lt;/div&gt;&lt;div&gt;&lt;font style=&quot;font-size: 16px;&quot;&gt;id (PK): Уникальный идентификатор записи ответа.&lt;/font&gt;&lt;/div&gt;&lt;div&gt;&lt;font style=&quot;font-size: 16px;&quot;&gt;user_id (FK -&amp;gt; Users.id): Пользователь, давший ответ.&lt;/font&gt;&lt;/div&gt;&lt;div&gt;&lt;font style=&quot;font-size: 16px;&quot;&gt;question_id (FK -&amp;gt; TestQuestion.id): Вопрос, на который был дан ответ.&lt;/font&gt;&lt;/div&gt;&lt;div&gt;&lt;font style=&quot;font-size: 16px;&quot;&gt;answer_text: Текст ответа.&lt;/font&gt;&lt;/div&gt;&lt;div&gt;&lt;font style=&quot;font-size: 16px;&quot;&gt;chosen_answer_id (FK -&amp;gt; TestAnswer.id): Выбранный вариант ответа.&lt;/font&gt;&lt;/div&gt;&lt;div&gt;&lt;br&gt;&lt;/div&gt;&lt;div&gt;&lt;font style=&quot;font-size: 16px;&quot;&gt;&lt;br&gt;&lt;/font&gt;&lt;/div&gt;&lt;div&gt;&lt;font style=&quot;font-size: 16px;&quot;&gt;14. ChapterToSimulator.&amp;nbsp;&lt;/font&gt;&lt;/div&gt;&lt;div&gt;&lt;font style=&quot;font-size: 16px;&quot;&gt;id (PK): Уникальный идентификатор связи.&lt;/font&gt;&lt;/div&gt;&lt;div&gt;&lt;font style=&quot;font-size: 16px;&quot;&gt;chapter_id (FK -&amp;gt; Chapter.id): Идентификатор главы.&lt;/font&gt;&lt;/div&gt;&lt;div&gt;&lt;font style=&quot;font-size: 16px;&quot;&gt;simulator_id (FK -&amp;gt; Simulator.id): Идентификатор симулятора.&lt;/font&gt;&lt;/div&gt;&lt;div&gt;&lt;font style=&quot;font-size: 16px;&quot;&gt;order_num: Порядковый номер главы в рамках симулятора.&lt;/font&gt;&lt;/div&gt;&lt;div&gt;&lt;font style=&quot;font-size: 16px;&quot;&gt;is_demo: Флаг, указывающий, что эта глава доступна в демо-версии данного симулятора.&lt;/font&gt;&lt;/div&gt;&lt;div&gt;&lt;font style=&quot;font-size: 16px;&quot;&gt;&lt;br&gt;&lt;/font&gt;&lt;/div&gt;&lt;/div&gt;&lt;div&gt;&lt;br&gt;&lt;/div&gt;&lt;/div&gt;" style="rounded=0;whiteSpace=wrap;html=1;align=left;" vertex="1" parent="1">
          <mxGeometry x="-112" y="-228" width="901" height="1672" as="geometry" />
        </mxCell>
        <mxCell id="z0Kl6_l-Gnp_nz9WpaOO-127" style="edgeStyle=orthogonalEdgeStyle;rounded=0;orthogonalLoop=1;jettySize=auto;html=1;exitX=1;exitY=0.5;exitDx=0;exitDy=0;strokeColor=light-dark(#000000,#0C0C0C);" edge="1" parent="1" source="z0Kl6_l-Gnp_nz9WpaOO-90" target="z0Kl6_l-Gnp_nz9WpaOO-66">
          <mxGeometry relative="1" as="geometry" />
        </mxCell>
      </root>
    </mxGraphModel>
  </diagram>
</mxfile>
